<svg width="50" height="47" viewBox="0 0 50 47" fill="none" xmlns="http://www.w3.org/2000/svg">
<g clip-path="url(#clip0_58_84)">
<path d="M4.49872 37.6493C2.17105 37.348 0.129315 35.2088 0.117267 32.7675C0.408025 26.7394 -0.256221 20.3524 0.117267 14.3661C0.270678 11.9133 1.75258 10.2127 4.05214 9.60257C6.58544 9.35129 9.14604 9.57958 11.693 9.44573C12.0143 7.04876 11.1838 4.38983 12.6151 2.2622C13.7628 0.557473 15.3508 0.141144 17.2696 0.0861266C26.7988 -0.18732 36.4709 0.281563 46.0041 0.224903C48.0619 0.609206 49.604 2.26056 50.0008 4.35042L49.9936 24.1338C49.6209 25.9979 48.151 27.6747 46.3221 28.0992C45.6483 28.2553 44.9053 28.2938 44.2178 28.2881V37.0335C44.2178 37.2782 43.7238 37.5993 43.515 37.6354C43.2258 37.6855 42.9519 37.4876 42.7455 37.3077C41.3568 36.0957 40.0604 34.051 38.7086 32.7306C38.2355 32.2182 38.393 33.1075 38.3464 33.4121C38.005 35.6498 35.9183 37.4301 33.7392 37.5705L19.6166 37.6666C16.9058 40.6178 14.2825 43.6561 11.6086 46.6419C11.2552 46.9597 10.8063 47.1715 10.3982 46.811C10.3332 46.7536 10.0826 46.3545 10.0826 46.3126V37.6493H4.49872ZM42.5302 34.5289V27.3438C42.5302 27.2822 42.784 26.8305 42.8499 26.7673C43.2395 26.3945 44.7655 26.6187 45.372 26.5538C47.1422 26.3649 48.2844 25.0191 48.3976 23.2421C48.7751 17.3182 48.1085 10.9772 48.3928 5.00981C48.253 3.25909 47.0105 2.01586 45.3045 1.84423C39.3849 1.82863 33.4565 1.87215 27.5465 1.8508C24.0944 1.83849 20.3017 1.53958 16.8648 1.7613C15.6945 1.83684 14.6062 2.26795 13.95 3.29769C13.3805 4.19193 13.4407 4.96629 13.4199 5.99438C13.3958 7.1514 13.4881 8.32813 13.4552 9.48432H34.1376C36.3392 9.48432 38.6484 12.4898 38.4379 14.6954L38.4339 29.9551L42.531 34.5306L42.5302 34.5289ZM35.9095 34.74C36.4837 34.065 36.691 33.3243 36.7504 32.4382C37.1384 26.6326 36.4508 20.382 36.7504 14.5304C36.4942 12.0866 35.2075 11.24 32.932 11.1718C23.6743 10.8943 14.3339 11.4576 5.05775 11.2047C3.12686 11.35 1.90519 12.562 1.72447 14.5304C2.01202 20.4206 1.35259 26.6737 1.72447 32.5212C2.03611 37.4317 7.77176 35.5578 10.9251 35.9249C11.5837 36.0013 11.7147 36.4135 11.7709 37.0302L11.7685 43.8072C11.9026 43.8384 11.9315 43.7637 12.0078 43.6832C14.2295 41.3437 16.2889 38.7185 18.472 36.3322L18.9933 35.9619L33.8966 35.8428C34.6508 35.6851 35.3986 35.3411 35.9103 34.74H35.9095Z" fill="white"/>
<path d="M8.45524 23.0541L30.079 23.0681C31.1488 23.1986 31.1472 24.6734 30.079 24.8032L8.6721 24.841C7.39261 24.8582 7.12113 23.2528 8.45524 23.0533V23.0541Z" fill="white"/>
<path d="M30.6983 28.4779C31.2372 29.1011 30.6493 30.0102 29.883 29.9338H8.59179C7.60707 29.9338 7.16129 28.8441 8.093 28.2685C15.4881 28.1486 22.9233 28.197 30.324 28.2438C30.4244 28.3227 30.6228 28.3917 30.6975 28.4779H30.6983Z" fill="white"/>
<path d="M8.3726 17.9604L19.1154 17.9424C20.2142 17.9826 20.4608 19.3934 19.3596 19.6676H8.35172C7.30676 19.4311 7.31479 18.206 8.3718 17.9604H8.3726Z" fill="white"/>
</g>
<defs>
<clipPath id="clip0_58_84">
<rect width="50" height="47" fill="white"/>
</clipPath>
</defs>
</svg>
