<svg width="52" height="51" viewBox="0 0 52 51" fill="none" xmlns="http://www.w3.org/2000/svg">
<path d="M4.92685 23.6211C4.58188 32.1842 4.74876 40.7601 5.42658 49.3033C5.4277 49.4052 5.44654 49.5005 5.4813 49.5874C5.50487 49.7491 5.57371 49.912 5.69975 50.0352C5.84028 50.1726 6.03539 50.2439 6.26407 50.2225C20.2424 48.9332 34.304 48.8118 48.3026 49.8595C48.3082 49.8599 48.3138 49.8601 48.3195 49.8601C48.7509 49.8601 49.0111 49.5718 49.0749 49.2485C49.1293 48.9729 49.0454 48.6483 48.7998 48.4485C47.3352 40.1301 46.3477 31.7348 45.8422 23.3035C45.8404 23.0909 45.7628 22.9147 45.6386 22.7854C47.1435 22.818 48.6485 22.8565 50.1534 22.9009L50.1534 22.901H50.1601C50.4582 22.901 50.6807 22.7593 50.8079 22.557C50.8756 22.5206 50.9383 22.4743 50.9936 22.419C51.1426 22.2701 51.2263 22.0681 51.2263 21.8575C51.2263 21.8487 51.2258 21.8398 51.2247 21.831L50.3261 14.1951C50.3507 14.1178 50.3636 14.0365 50.3636 13.9539C50.3636 13.7433 50.28 13.5413 50.131 13.3924C49.9825 13.244 49.7813 13.1604 49.5715 13.1598C46.7776 13.1119 43.9833 13.0741 41.1886 13.0463C42.2791 11.3089 43.4561 8.51815 43.6584 6.06236C43.7666 4.74829 43.5984 3.4961 42.9512 2.55497C42.2956 1.6016 41.1785 1.01005 39.488 0.963592L39.488 0.963279L39.4761 0.963579C36.6796 1.03396 33.936 1.74078 31.4538 3.03029C29.738 3.80935 28.192 4.9013 26.8908 6.24255C25.6271 4.88297 24.1177 3.76156 22.4332 2.94222C19.8401 1.50067 16.9171 0.756283 13.9501 0.781766C12.5491 0.710662 11.1649 1.113 10.0205 1.92411C8.87411 2.73656 8.03525 3.91167 7.63942 5.25957C7.63658 5.26926 7.63438 5.27913 7.63286 5.28911C7.39692 6.83139 7.53584 8.40779 8.03787 9.88508C8.44745 11.0903 9.08886 12.2006 9.92312 13.1548C7.2345 13.2002 4.54545 13.2549 1.85596 13.3188C1.54789 13.3198 1.32285 13.4764 1.19939 13.6909C1.05418 13.8303 0.974513 14.0305 0.997007 14.2703C1.25651 17.0409 1.1888 19.8324 0.79533 22.5871C0.749303 22.7832 0.777367 22.9896 0.874389 23.1664C0.973452 23.347 1.13708 23.4835 1.33252 23.5486L1.33247 23.5488L1.34068 23.5511C1.54288 23.6101 1.76025 23.5863 1.94494 23.4851C1.99124 23.4597 2.03455 23.43 2.07437 23.3965C2.18623 23.451 2.31708 23.4771 2.46233 23.4685C3.30285 23.4237 4.14337 23.3807 4.98388 23.3396C4.95015 23.4242 4.93018 23.5185 4.92685 23.6211ZM4.92685 23.6211C4.92686 23.6208 4.92687 23.6205 4.92689 23.6202L5.15297 23.6293M4.92685 23.6211C4.92684 23.6215 4.92683 23.6219 4.92681 23.6222L5.15297 23.6293M5.15297 23.6293C5.15675 23.5084 5.19074 23.4075 5.24476 23.3269L5.70179 49.5275C5.67062 49.46 5.6528 49.382 5.6528 49.2936C4.97512 40.7564 4.80821 32.1864 5.15297 23.6293ZM11.8596 13.1238C11.8502 13.0098 11.8148 12.8948 11.7482 12.7861C11.7815 12.6996 11.7588 12.6014 11.6905 12.5384C10.6935 11.6178 9.95183 10.4549 9.53776 9.16277C9.12503 7.87488 9.05174 6.50238 9.32489 5.17802C9.76679 3.86545 10.6999 3.08489 11.8453 2.66259C13.002 2.23617 14.3718 2.17781 15.6461 2.32304C18.1891 2.61973 20.6286 3.50169 22.7731 4.89966L22.7731 4.89971L22.7773 4.90233C23.4383 5.31281 24.7898 6.2525 25.9076 7.36252C25.671 7.66069 25.4453 7.96843 25.2312 8.28521C24.7298 9.02516 24.337 10.21 24.4061 11.2435C24.4409 11.7638 24.5943 12.2659 24.9324 12.6498C25.0502 12.7836 25.1877 12.8999 25.3456 12.9965C20.8515 13.0129 16.3561 13.0554 11.8596 13.1238ZM39.4104 13.0299C35.5963 12.9978 31.7813 12.9845 27.9654 12.9899C28.025 12.9543 28.0824 12.9161 28.1375 12.8754C28.5591 12.5644 28.8336 12.1212 28.9882 11.6315C29.2949 10.6601 29.143 9.4678 28.6857 8.60175C28.6833 8.59725 28.6808 8.59283 28.6781 8.5885C28.4452 8.21127 28.1963 7.84551 27.9326 7.49204C28.5545 6.85671 29.2387 6.28424 29.9753 5.78346C31.9845 4.43903 34.2224 3.4727 36.5789 2.93202L36.5811 2.9315C37.714 2.65969 39.1239 2.43344 40.2366 2.67973C40.7875 2.80166 41.2487 3.03581 41.572 3.42204C41.8936 3.80614 42.1001 4.36596 42.0954 5.18136C41.9756 7.86772 41.0914 10.4641 39.5465 12.6655L39.5465 12.6655L39.5435 12.67C39.4649 12.7878 39.4217 12.91 39.4104 13.0299ZM26.353 22.6904C32.3879 22.6191 38.4228 22.6426 44.4577 22.761C44.3184 22.8984 44.2396 23.0924 44.2541 23.3248C44.2541 23.3248 44.2541 23.3249 44.2541 23.3249L44.48 23.3108C44.5858 25.1389 44.7142 26.9654 44.8652 28.7898C44.7892 28.7865 44.7133 28.7832 44.6373 28.7799C44.6436 28.8556 44.6499 28.9314 44.6562 29.0072L26.353 22.6904ZM6.51521 23.6293C6.51521 23.495 6.48626 23.3743 6.43435 23.2704C12.5446 22.9868 18.6548 22.8004 24.765 22.7114L24.9867 28.3298C18.7817 28.3147 12.5767 28.4197 6.37177 28.6451C6.40005 26.9759 6.4478 25.3069 6.51503 23.6384L6.51521 23.6384V23.6293ZM44.7749 30.3744C45.3109 36.3388 46.0876 42.28 47.1035 48.1834C40.5094 47.7222 33.9023 47.5199 27.2974 47.5763C27.3181 47.502 27.3282 47.4208 27.3255 47.3334L27.3254 47.3316L26.6385 29.9248C32.6839 29.9604 38.7294 30.1103 44.7749 30.3744ZM26.1847 9.81592L26.1848 9.81601L26.1888 9.808C26.4054 9.37543 26.6648 8.96612 26.963 8.58615C27.3001 9.06425 27.5358 9.53636 27.6233 9.98011C27.7227 10.4836 27.633 10.9524 27.2699 11.3751C27.0163 11.6624 26.8099 11.7278 26.6386 11.6936C26.4519 11.6562 26.2193 11.4869 25.9522 11.0979C25.8879 10.6571 25.9692 10.2068 26.1847 9.81592ZM6.95943 48.5694C6.49537 42.4683 6.29236 36.351 6.35072 30.2343C12.5836 30.0074 18.8165 29.902 25.0494 29.9181L25.7371 47.3452C25.7375 47.4353 25.7514 47.5184 25.7761 47.5939C19.4965 47.6852 13.2199 48.0105 6.95943 48.5694ZM49.5701 21.2957C33.8591 20.8487 18.1629 21.043 2.48146 21.8787C2.7593 19.5598 2.81207 17.2191 2.63882 14.8894C18.0111 14.5476 33.3975 14.4964 48.7981 14.7358L49.5701 21.2957Z" fill="white" stroke="white" stroke-width="0.452541" stroke-linejoin="round"/>
</svg>
