<svg width="52" height="48" viewBox="0 0 52 48" fill="none" xmlns="http://www.w3.org/2000/svg">
<path d="M18.4858 15.9345H1.72275C1.59909 15.9345 1.47883 15.9665 1.37284 16.0258C1.1331 16.0839 0.927037 16.2556 0.831112 16.471C0.778851 16.5883 0.756848 16.7247 0.788135 16.8642C0.819768 17.0052 0.901932 17.1316 1.02773 17.2331C5.85724 21.131 10.567 25.1306 15.1569 29.2319L10.5886 45.7647C10.5864 45.7728 10.5846 45.7809 10.5833 45.7892C10.5587 45.9423 10.5837 46.0987 10.6537 46.2358C10.6139 46.4174 10.6448 46.6078 10.7406 46.7677C10.8394 46.9325 10.9994 47.0516 11.1859 47.098C11.372 47.1442 11.5685 47.1142 11.7324 47.0147C16.6534 44.1128 21.3914 40.9062 25.919 37.4132C30.7294 40.8308 35.679 44.0186 40.7679 46.9765C40.7744 46.9802 40.781 46.9836 40.7878 46.9867C40.8148 46.999 40.8423 47.0096 40.8704 47.0184C41.0048 47.1514 41.186 47.2263 41.3752 47.2263C41.5668 47.2263 41.7501 47.1494 41.8849 47.0134C42.0197 46.8774 42.0951 46.6935 42.0951 46.5019L42.0951 46.5012C42.0751 40.6761 41.1163 34.8938 39.257 29.3803L51.0142 17.6156L51.0149 17.6149C51.276 17.3514 51.2703 17.0213 51.132 16.7762C51.1103 16.6222 51.0397 16.4782 50.929 16.3665C50.7942 16.2304 50.6108 16.1536 50.4192 16.1536L50.4187 16.1536C44.9576 16.1664 39.5006 15.8614 34.0748 15.2405C34.0717 15.2372 34.0686 15.234 34.0654 15.2308C33.9335 15.0977 33.7552 15.0213 33.5682 15.018L33.3765 14.9985C32.5595 10.1417 30.9169 5.46267 28.5201 1.16816C28.5159 1.16054 28.5112 1.15318 28.5061 1.14611C28.4946 1.1302 28.4825 1.1148 28.4699 1.09996C28.3423 0.915817 28.1259 0.797562 27.9021 0.776981C27.6631 0.755004 27.4059 0.843897 27.2306 1.08602L27.2286 1.08879C23.9269 5.79444 21.0033 10.7588 18.4858 15.9345ZM11.6159 46.8207V46.8207ZM19.8833 16.3802C22.1834 11.6702 24.8219 7.13662 27.7774 2.81585C29.7535 6.58935 31.1426 10.6475 31.8957 14.8477L29.2736 14.5808C29.2631 14.5797 29.2526 14.5794 29.2421 14.5798C29.0551 14.5869 28.8781 14.665 28.7464 14.7979C28.6147 14.9307 28.5379 15.1085 28.5309 15.2955L28.5307 15.2955V15.3039C28.5307 15.4954 28.6062 15.6794 28.7409 15.8154L28.9016 15.6561L28.7409 15.8154C28.8728 15.9485 29.0511 16.0249 29.2381 16.0282L32.5495 16.3653C32.6627 16.4736 32.8145 16.547 32.9974 16.565C38.3032 17.2115 43.6405 17.5565 48.9839 17.5983L37.8811 28.7083C37.8806 28.7088 37.8801 28.7093 37.8796 28.7098C37.7247 28.86 37.6572 29.0452 37.6671 29.2297C37.6757 29.3901 37.7418 29.537 37.8362 29.6531C39.549 34.6726 40.4925 39.9242 40.6361 45.2266C35.7672 42.3453 31.0156 39.2627 26.3814 35.9788C26.2991 35.9185 26.211 35.8772 26.1195 35.8571C25.9222 35.766 25.6883 35.7824 25.479 35.9428L25.4783 35.9434C21.2574 39.2059 16.8572 42.2245 12.2989 44.9848L16.4185 30.3423L20.1105 33.4989C20.1758 33.5649 20.2533 33.6177 20.3386 33.6543C20.4278 33.6925 20.5238 33.7123 20.6209 33.7123C20.7179 33.7123 20.814 33.6925 20.9032 33.6543C20.9924 33.616 21.0729 33.56 21.1399 33.4899L21.14 33.49L21.1443 33.4851C21.268 33.348 21.3363 33.1696 21.3363 32.9849C21.3363 32.8002 21.268 32.6218 21.1443 32.4847C21.1377 32.4774 21.1305 32.4704 21.123 32.464L16.536 28.5588C16.5104 28.5262 16.4816 28.4952 16.4498 28.4658L16.4482 28.4643C12.2393 24.6475 7.92967 20.9537 3.51921 17.3831H19.2188C19.4104 17.3831 19.5937 17.3063 19.7285 17.1702C19.8633 17.0343 19.9387 16.8503 19.9387 16.6588C19.9387 16.5623 19.9196 16.4677 19.8833 16.3802Z" fill="white" stroke="white" stroke-width="0.452541" stroke-linejoin="round"/>
</svg>
