<svg width="161" height="32" viewBox="0 0 161 32" fill="none" xmlns="http://www.w3.org/2000/svg">
<g id="GAM32">
<path d="M21.714 15.538H27.93V30.7H22.806V28.936C20.762 30.448 18.13 31.204 14.91 31.204C12.194 31.204 9.702 30.616 7.434 29.44C5.166 28.264 3.36 26.556 2.016 24.316C0.672 22.048 0 19.36 0 16.252C0 13.256 0.686 10.596 2.058 8.272C3.458 5.92 5.39 4.086 7.854 2.77C10.318 1.454 13.09 0.795998 16.17 0.795998C18.746 0.795998 21.084 1.23 23.184 2.098C25.284 2.966 27.048 4.226 28.476 5.878L24.108 9.91C22.008 7.698 19.474 6.592 16.506 6.592C14.63 6.592 12.964 6.998 11.508 7.81C10.052 8.594 8.918 9.714 8.106 11.17C7.294 12.626 6.888 14.306 6.888 16.21C6.888 18.198 7.28 19.892 8.064 21.292C8.876 22.692 9.954 23.756 11.298 24.484C12.642 25.184 14.112 25.534 15.708 25.534C18.088 25.534 20.09 24.862 21.714 23.518V15.538Z" fill="#1A1A1A"/>
<path d="M47.4803 0.795998C50.1963 0.795998 52.5623 1.328 54.5783 2.392C56.5943 3.456 58.1623 5.024 59.2823 7.096C60.4023 9.168 60.9623 11.674 60.9623 14.614V30.7H54.1583V23.644H40.7183V30.7H33.9983V14.614C33.9983 11.674 34.5583 9.168 35.6783 7.096C36.7983 5.024 38.3663 3.456 40.3823 2.392C42.3983 1.328 44.7643 0.795998 47.4803 0.795998ZM54.1583 18.184V13.984C54.1583 11.548 53.5563 9.714 52.3523 8.482C51.1483 7.222 49.5103 6.592 47.4383 6.592C45.3383 6.592 43.6863 7.222 42.4823 8.482C41.3063 9.714 40.7183 11.548 40.7183 13.984V18.184H54.1583Z" fill="#1A1A1A"/>
<path d="M101.236 0.795998C104.708 0.795998 107.41 1.818 109.342 3.862C111.274 5.878 112.24 8.804 112.24 12.64V30.7H105.436V12.85C105.436 10.778 104.89 9.224 103.798 8.188C102.734 7.124 101.32 6.592 99.5561 6.592C97.6241 6.592 96.0841 7.152 94.9361 8.272C93.7881 9.364 93.2141 11.03 93.2141 13.27V30.7H86.4101V12.85C86.4101 10.778 85.9061 9.224 84.8981 8.188C83.8901 7.124 82.5181 6.592 80.7821 6.592C78.8781 6.592 77.3521 7.152 76.2041 8.272C75.0561 9.364 74.4821 11.03 74.4821 13.27V30.7H67.6781V1.3H74.2721V4.912C75.1681 3.596 76.3581 2.588 77.8421 1.888C79.3261 1.16 81.0341 0.795998 82.9661 0.795998C84.9821 0.795998 86.7461 1.174 88.2581 1.93C89.7701 2.658 90.9321 3.722 91.7441 5.122C92.7521 3.722 94.0681 2.658 95.6921 1.93C97.3441 1.174 99.1921 0.795998 101.236 0.795998Z" fill="#1A1A1A"/>
<path d="M126.718 14.11C129.966 14.194 132.43 14.992 134.11 16.504C135.818 17.988 136.672 19.962 136.672 22.426C136.672 24.078 136.28 25.548 135.496 26.836C134.712 28.096 133.536 29.09 131.968 29.818C130.428 30.546 128.566 30.91 126.382 30.91C124.254 30.91 122.252 30.56 120.376 29.86C118.5 29.132 117.044 28.166 116.008 26.962L117.1 25.324C118.052 26.388 119.34 27.256 120.964 27.928C122.616 28.6 124.422 28.936 126.382 28.936C128.986 28.936 130.988 28.362 132.388 27.214C133.788 26.038 134.488 24.442 134.488 22.426C134.488 20.382 133.774 18.786 132.346 17.638C130.918 16.49 128.776 15.916 125.92 15.916H124.072V14.362L132.766 3.232H117.1V1.3H135.538V2.812L126.718 14.11Z" fill="#1A1A1A"/>
<path d="M160.6 28.768V30.7H140.398V29.188L152.83 16.84C154.454 15.216 155.546 13.83 156.106 12.682C156.694 11.506 156.988 10.302 156.988 9.07C156.988 7.194 156.344 5.724 155.056 4.66C153.796 3.596 151.962 3.064 149.554 3.064C147.706 3.064 146.082 3.344 144.682 3.904C143.31 4.464 142.12 5.318 141.112 6.466L139.6 5.122C140.72 3.834 142.134 2.84 143.842 2.14C145.578 1.44 147.538 1.09 149.722 1.09C152.606 1.09 154.902 1.79 156.61 3.19C158.318 4.59 159.172 6.48 159.172 8.86C159.172 10.372 158.836 11.814 158.164 13.186C157.492 14.558 156.232 16.154 154.384 17.974L143.548 28.768H160.6Z" fill="#1A1A1A"/>
</g>
</svg>
